<svg xmlns="http://www.w3.org/2000/svg" width="679" height="366" fill="none" viewBox="0 0 679 366">
  <g clip-path="url(#a)">
    <path fill="#D5D5D6" d="M607.96 364.37h-449c-6.78 0-12.29-5.51-12.29-12.29V99.44c0-6.78 5.51-12.29 12.29-12.29h449c6.78 0 12.29 5.51 12.29 12.29v252.64c0 6.78-5.51 12.29-12.29 12.29Zm-449-269.22a4.29 4.29 0 0 0-4.29 4.29v252.64a4.29 4.29 0 0 0 4.29 4.29h449a4.29 4.29 0 0 0 4.29-4.29V99.44a4.29 4.29 0 0 0-4.29-4.29h-449Z"/>
    <path fill="#FFB703" d="M271.44 210.85h-21.66v55.08h21.66v-55.08Zm35.1-5.29h-21.66v60.37h21.66v-60.37Zm35.1 20.66h-21.66v39.71h21.66v-39.71Zm35.1-12.26h-21.66v51.97h21.66v-51.97Zm35.1 10.5h-21.66v41.46h21.66v-41.46Zm35.1-30.94h-21.66v72.41h21.66v-72.41Zm35.1 12.04h-21.66v60.37h21.66v-60.37Zm35.1-10.49h-21.66v70.86h21.66v-70.86Z"/>
    <path fill="#D5D5D6" d="M176.84 122.18H336.7c1.44 0 2.61 1.17 2.61 2.61s-1.17 2.61-2.61 2.61H176.84c-1.44 0-2.61-1.17-2.61-2.61s1.17-2.61 2.61-2.61Z"/>
    <path fill="#2E2E41" d="M678.62 364.37c0 .83-.67 1.5-1.5 1.5H1.5c-.83 0-1.5-.67-1.5-1.5s.67-1.5 1.5-1.5h675.62c.83 0 1.5.67 1.5 1.5Z"/>
    <path fill="#F3D3A3" d="m133.7 60.68 19.65 6.46V38.85h-17.83l-1.82 21.83Z"/>
    <path fill="#F3D3A3" d="M150.92 46.68c10.814 0 19.58-8.766 19.58-19.58 0-10.814-8.766-19.58-19.58-19.58-10.814 0-19.58 8.766-19.58 19.58 0 10.814 8.766 19.58 19.58 19.58Z"/>
    <path fill="#000" d="m145.93 28.63 2.7 3.28 4.88-8.54s6.23.32 6.23-4.3 5.72-4.75 5.72-4.75 8.09-14.13-8.67-10.41c0 0-11.63-7.97-17.41-1.16 0 0-17.73 8.93-12.66 24.48l8.43 16.02 1.91-3.63s-1.16-15.23 8.87-10.99Z"/>
    <path fill="#F3D3A3" d="M144.12 328.67H128.3v22.44h15.82v-22.44Z"/>
    <path fill="#000" d="M142.37 363.96c-2.71.25-16.24 1.31-16.92-1.79-.62-2.85.29-5.83.42-6.23 1.3-12.94 1.78-13.09 2.07-13.18.46-.13 1.81.5 3.99 1.91l.14.09.03.16c.04.2 1.01 4.95 5.59 4.23 3.14-.5 4.16-1.19 4.49-1.53-.27-.12-.6-.33-.83-.7-.34-.53-.4-1.21-.18-2.02.59-2.15 2.36-5.33 2.43-5.46l.2-.36 17.98 12.13 11.1 3.17c.84.24 1.51.84 1.85 1.64.47 1.12.18 2.42-.72 3.23-2.02 1.81-6.02 4.92-10.23 5.3-1.12.1-2.6.14-4.26.14-6.95 0-17.08-.72-17.16-.73h.01Z"/>
    <path fill="#F3D3A3" d="m94.764 294.982-14.303 17.29 12.19 10.084 14.303-17.29-12.19-10.084Z"/>
    <path fill="#000" d="M83.13 331.15c-2.24-1.54-13.35-9.34-11.9-12.16 1.34-2.59 3.94-4.3 4.3-4.53 9.25-9.14 9.72-8.95 10-8.83.44.19 1.07 1.54 1.86 4.01l.05.15-.08.14c-.1.18-2.38 4.46 1.61 6.82 2.74 1.62 3.97 1.73 4.43 1.68a1.92 1.92 0 0 1-.2-1.07c.07-.62.46-1.19 1.16-1.67 1.83-1.28 5.21-2.6 5.36-2.66l.38-.15 6.12 20.81 6.53 9.52a2.86 2.86 0 0 1-2.24 4.48c-2.71.11-7.77-.05-11.26-2.44-.92-.63-2.09-1.54-3.37-2.6-5.35-4.43-12.7-11.44-12.76-11.5h.01Zm87.15-175.57h-54.26l12.06 179.36h18.09l24.12-179.36h-.01Z"/>
    <path fill="#000" d="m159.23 165.46 11.05-9.88-5.53 98.65-61.79 58.78-15.41-12.73 36.01-46.72 35.67-88.1Z"/>
    <path fill="#FFB703" d="m159.23 50.08-26.8-4.35-8.32 14.55a98.813 98.813 0 0 0-12.3 61.07l4.21 34.25h54.26L159.23 50.09v-.01Z"/>
    <path fill="#F3D3A3" d="M137.47 187.88c1.11 5.53-.96 10.58-4.61 11.28-3.66.69-7.52-3.23-8.63-8.77-.47-2.21-.39-4.49.24-6.66l-4.4-23.51 11.5-1.79 3.11 23.37c1.42 1.79 2.38 3.87 2.79 6.09v-.01Z"/>
    <path fill="#FFB703" d="m123.48 181.51-16.89-52.18v-.08l6.38-53.73c.98-8.23 7.96-14.43 16.24-14.43 5.07 0 9.77 2.29 12.89 6.29 3.12 4 4.21 9.11 2.98 14.04l-11.27 45.07 2.69 51.15-13.03 3.87h.01Z"/>
  </g>
  <defs>
    <clipPath id="a">
      <path fill="#fff" d="M0 0h678.62v365.87H0z"/>
    </clipPath>
  </defs>
</svg>
