<svg xmlns="http://www.w3.org/2000/svg" width="418" height="433" fill="none" viewBox="0 0 418 433">
  <g clip-path="url(#a)">
    <path fill="#2F2E41" d="M143.264 95.45c3.486-.633 7.279 4.004 8.864 5.941 4.23 5.171 5.113 11.187 5.454 13.74 5.39 40.295 8.085 60.443-3.068 69.814-10.599 8.906-29.974 6.517-33.75-1.486-1.471-3.117-.241-6.379 1.705-12.626 3.595-11.545 5.715-23.578 8.863-35.278 7.189-26.714 6.585-39.135 11.932-40.106ZM48.15 245.846l-16.963 34.876c-4.33 8.902-24.82 146.043-15.708 147.771l39.47 1.426 16.377.936 16.833.264 41.725 1.508-23.438-178.611-58.296-8.17Z"/>
    <path fill="#206CFF" d="m89.912 143.539 33.75 1.486 2.727 12.254 8.128 7.223c2.988 2.655 4.454 6.842 3.848 10.991l-3.794 25.977s7.159 18.568-10.909 30.451l-18.068 31.936-62.728-7.056s-5.795-.742-1.705-5.199c4.091-4.456 9.205-26.366 9.205-26.366s-.682-9.655 1.705-12.254c2.386-2.6.724-9.284.724-9.284l9.707-39.084c1.891-7.616 8.235-12.905 15.478-12.905h10.764l1.168-8.17Z"/>
    <path fill="#fff" d="M349.541 393.445 54.789 307.636c-6.297-1.834-10.685-7.353-11.452-14.404-.767-7.051 2.317-13.534 8.046-16.919l119.786-70.765c3.027-1.789 6.567-2.438 9.965-1.827l197.989 35.553c4.227.759 7.889 3.297 10.314 7.144 2.424 3.847 3.28 8.482 2.411 13.051l-23.023 121.02c-.879 4.62-3.393 8.527-7.079 11.004-2.499 1.679-5.295 2.538-8.142 2.538-1.352 0-2.715-.194-4.063-.586Z"/>
    <path fill="#CCC" d="M349.541 393.445 54.789 307.636c-6.297-1.834-10.685-7.353-11.452-14.404-.767-7.051 2.317-13.534 8.046-16.919l119.786-70.765c3.027-1.789 6.567-2.438 9.965-1.827l197.989 35.553c4.227.759 7.889 3.297 10.314 7.144 2.424 3.847 3.28 8.482 2.411 13.051l-23.023 121.02c-.879 4.62-3.393 8.527-7.079 11.004-2.499 1.679-5.295 2.538-8.142 2.538-1.352 0-2.715-.194-4.063-.586Zm29.317-152.422-197.989-35.554c-3.043-.547-6.213.034-8.925 1.636L52.159 277.871c-5.132 3.031-7.893 8.837-7.207 15.153.687 6.315 4.617 11.258 10.257 12.9l294.752 85.809c3.747 1.09 7.63.47 10.931-1.748 3.302-2.218 5.553-5.719 6.34-9.856l23.023-121.02c.779-4.091.012-8.243-2.159-11.689-2.172-3.445-5.452-5.717-9.238-6.397Z"/>
    <path fill="#F2F2F2" d="m336.037 274.338-26.286 72.252c-2.548 7.005-9.703 10.589-16.243 8.137l-193.207-72.412c-10.668-3.998-11.86-19.915-1.927-25.743l62.177-36.489c2.705-1.588 5.841-2.075 8.845-1.375l157.315 36.65c7.829 1.823 12.275 10.874 9.326 18.98Z"/>
    <path fill="#FF6884" d="M285.424 286.323c6.025 0 10.909-2.66 10.909-5.941 0-3.282-4.884-5.942-10.909-5.942s-10.909 2.66-10.909 5.942c0 3.281 4.884 5.941 10.909 5.941Z"/>
    <path fill="#3F3D56" d="M275.197 304.52c6.025 0 10.909-2.66 10.909-5.942 0-3.281-4.884-5.942-10.909-5.942s-10.91 2.661-10.91 5.942c0 3.282 4.885 5.942 10.91 5.942Z"/>
    <path fill="#206CFF" d="M216.56 290.223c16.38 0 29.659-7.233 29.659-16.154 0-8.922-13.279-16.154-29.659-16.154s-29.659 7.232-29.659 16.154c0 8.921 13.279 16.154 29.659 16.154Z"/>
    <path fill="#3F3D56" d="M165.082 273.327c.421 0 .816-.286.965-.743.188-.58-.091-1.217-.623-1.422l-21.643-8.356c-.531-.204-1.116.098-1.305.679-.189.58.09 1.216.622 1.422l21.643 8.355a.937.937 0 0 0 .341.065Zm4.773-4.085c.421 0 .816-.286.964-.743.189-.579-.09-1.216-.622-1.422l-21.643-8.355c-.531-.205-1.116.098-1.305.678-.189.58.09 1.217.622 1.422l21.643 8.356a.957.957 0 0 0 .341.064Zm4.773-4.085c.421 0 .815-.285.964-.742.189-.58-.09-1.217-.622-1.423l-21.643-8.355c-.531-.205-1.117.098-1.306.678-.188.58.091 1.217.623 1.422l21.642 8.356a.958.958 0 0 0 .342.064Zm4.773-4.085c.421 0 .815-.286.964-.742.188-.58-.09-1.217-.623-1.423l-21.642-8.355c-.531-.205-1.117.098-1.306.678-.188.58.09 1.217.623 1.422l21.642 8.356a.958.958 0 0 0 .342.064Zm4.772-4.085c.421 0 .816-.285.965-.742.188-.58-.091-1.217-.623-1.422l-21.642-8.356c-.531-.205-1.117.098-1.306.678-.189.58.09 1.217.622 1.423l21.643 8.355a.957.957 0 0 0 .341.064Zm4.773-4.085c.421 0 .815-.285.964-.742.189-.58-.09-1.217-.622-1.422l-21.643-8.356c-.531-.204-1.116.098-1.305.678-.189.58.09 1.217.622 1.423l21.643 8.355a.932.932 0 0 0 .341.064Zm4.773-4.085c.421 0 .815-.285.964-.742.189-.58-.09-1.217-.622-1.422l-21.643-8.356c-.531-.204-1.117.098-1.306.679-.188.579.091 1.216.623 1.422l21.642 8.355a.937.937 0 0 0 .342.064Z"/>
    <path fill="#A0616A" d="M120.764 155.608c15.439 0 27.955-13.633 27.955-30.451 0-16.817-12.516-30.45-27.955-30.45-15.439 0-27.955 13.633-27.955 30.45 0 16.818 12.516 30.451 27.955 30.451Z"/>
    <path fill="#2F2E41" d="M126.56 79.853c-7.871-1.398-12.098-2.148-16.364-1.114-8.547 2.07-13.505 10.394-17.046 16.339-8.467 14.216-4.639 20.191-12.954 40.106-5.965 14.286-8.973 13.696-9.546 21.167-1.203 15.683 11.045 31.371 24.205 37.506.879.41 14.555 6.644 18.409 1.486 2.825-3.782-2.165-10.291-8.182-27.852-10.579-30.878-5.58-41.198-4.091-43.819.941-1.656 3.625-5.773 5.114-5.199 1.347.519.181 4.287 1.364 7.427 3.168 8.412 22.427 10.28 37.5 3.714 4.445-1.937 7.172-3.125 9.204-6.313 6.895-10.818-1.336-33.487-14.318-40.106-2.953-1.506-6.401-2.118-13.295-3.342Z"/>
    <path fill="#A0616A" d="M106.572 261.278c6.799 3.757 10.531 10.623 8.336 15.336-2.196 4.713-9.486 5.487-16.287 1.728-2.735-1.461-5.11-3.614-6.925-6.28L63.073 255.75l7.314-14.468 27.44 17.617c3.048.021 6.047.837 8.745 2.379ZM240.44 240.29c7.162 2.845 11.619 9.177 9.956 14.142-1.663 4.964-8.816 6.681-15.981 3.833-2.876-1.094-5.469-2.923-7.564-5.334l-30.205-12.473 5.675-15.316 29.175 13.923a17.63 17.63 0 0 1 8.944 1.225Z"/>
    <path fill="#206CFF" d="M74.06 159.322s-5.796-12.998-19.092-2.971c-13.295 10.026-45 51.618-45 51.618s-16.364 15.596-7.159 21.167c9.205 5.57 75.341 37.877 75.341 37.877l16.705-12.626-59.319-33.05 34.074-27.851 4.45-34.164Zm57.954 7.798s4.056-6.313 11.233 0c7.176 6.313 27.831 42.663 27.831 42.663l50.937 22.695-7.5 16.71-61.023-23.766-26.591-39.363 5.113-18.939Z"/>
    <path fill="#2F2E41" d="M128.775 155.794c-7.731 4.3-4.173 10.902-4.431 12.254-2.513 13.165 6.672 26.801 10.227 25.995 2.085-.473 3.182-6.132 2.727-10.398-.589-5.531 4.294-14.286 3.75-18.196-1.334-9.593 6.716-9.773 5.114-13.369-.939-2.107-12.779 1.151-17.387 3.714Z"/>
    <path fill="#fff" d="M218.393 291.077a.773.773 0 0 0 .096-.006c.446-.057.765-.498.713-.984l-1.834-16.865a.907.907 0 0 0-.305-.591.769.769 0 0 0-.6-.184l-29.121 3.815c-.446.058-.764.499-.711.985.054.486.459.835.905.774l28.312-3.709 1.738 15.983c.049.451.4.782.807.782Z"/>
    <path fill="#206CFF" d="M68.435 307.365c8.385 0 15.182-7.404 15.182-16.537s-6.797-16.537-15.182-16.537c-8.384 0-15.181 7.404-15.181 16.537s6.797 16.537 15.181 16.537Z"/>
    <path fill="#fff" d="m61.538 288.249 4.88 9.347c.29.557 1.123.597 1.404 0 1.906-4.053 4.597-7.642 7.915-10.424.35-.294.529-.758.292-1.212-.197-.375-.766-.609-1.113-.318a32.376 32.376 0 0 0-8.499 11.06h1.405l-4.88-9.348c-.517-.991-1.923-.099-1.404.895Z"/>
  </g>
  <defs>
    <clipPath id="a">
      <path fill="#fff" d="M0 0h418.005v432.627H0z"/>
    </clipPath>
  </defs>
</svg>
