<svg xmlns="http://www.w3.org/2000/svg" width="563" height="482" fill="none" viewBox="0 0 563 482">
  <g clip-path="url(#a)">
    <path fill="#FDADB0" d="M273.091 239.998c-2.016 8.085.681 15.672 6.024 16.945 5.343 1.273 11.307-4.249 13.323-12.337.851-3.22.889-6.596.111-9.844l8.094-34.364-16.824-3.434-6.193 34.242a20.409 20.409 0 0 0-4.535 8.792Zm70.536 196.497-1.036 22.523 1.038 6.233-3.633 7.271-28.547 3.116-1.557-13.504 15.052-7.79.437-12.727 18.246-5.122Z"/>
    <path fill="#2F2E43" d="m313.525 470.444 1.557 2.078 29.896-8.621s-1.349 13.295-1.349 15.892c0 2.597-49.308 2.597-56.728 1.558-7.419-1.039-5.037-7.791-5.037-7.791l30.77-14.574.891 11.458Z"/>
    <path fill="#FDADB0" d="m418.001 419.916 6.222 21.67 2.976 5.572-1.116 8.053-26.049 12.094-5.794-12.295 11.769-12.201-7.383-19.156 19.375-3.737Z"/>
    <path fill="#2F2E43" d="m400.34 461.719 2.139 1.47 25.566-17.741s2.975 13.028 3.805 15.488c.831 2.46-45.884 18.25-53.246 19.642-7.361 1.392-7.263-5.768-7.263-5.768l24.49-23.661 4.509 10.57Z"/>
    <path fill="#FDADB0" d="m341.615 64.652-1.09 17.714 33.055 1.678-10.236-23.338-21.729 3.946Z"/>
    <path fill="#E0E1E2" d="M339.682 79.716c8.86 3.955 23.031 2.873 39.091 0l2.51 111.336s-50.238 10.107-67.51-8.542l9.091-90.968 16.818-11.826Z"/>
    <path fill="#2F2E43" d="m319.227 185.239 70.923 7.015 34.999 237.803h-26.818L352.409 267.11l-3.636 184.665h-24.546L303.318 225.72l15.909-40.481Z"/>
    <path fill="#3F3D58" d="m368.689 72.894 23.83 14.11c9.027 5.346 13.282 16.136 10.334 26.209l-18.416 62.943s29.99 51.555 20.245 56.104c-21.899 10.221-54.577 7.732-54.577 7.732l7.304-123.434 11.28-43.664Zm-27.972 6.354-26.944 10.475-6.364 77.778-17.821 62.657c30.185 11.025 27.366 5.887 27.366 5.887l5-108.116 18.763-48.68Z"/>
    <path fill="#3F3D58" d="m301.356 228.833.092-.426 27.542-127.47c.77-3.561-.214-7.131-2.699-9.795-2.486-2.664-5.978-3.891-9.583-3.367a10.907 10.907 0 0 0-9.066 8.255L277.39 220.463l23.966 8.37Z"/>
    <path fill="#FDADB0" d="M355.958 69.358c-14.811 0-26.818-12.014-26.818-26.835 0-14.82 12.007-26.835 26.818-26.835 14.811 0 26.818 12.014 26.818 26.835 0 14.82-12.007 26.835-26.818 26.835Z"/>
    <path fill="#2F2E43" d="M343.199 7.756c-5.907 2.078-9.287 3.266-12.383 6.251-5.23 5.042-6.093 11.78-6.895 18.04-.627 4.897-1.439 11.229 1.427 18.464.979 2.468 5.723 13.468 14.804 14.858 1.783.273 5.97.345 4.763-.547-11.169-8.251-15.935-13.232-15.545-25.95.243-7.9 12.309-16.432 19.474-17.965 3.018-.646 7.036-.056 9.917 2.31 6.022 4.947 5.765 25.403 12.115 29.679 2.611 1.758.871-10.62 2.711-8.613 3.63 3.96 1.302 10.027.649 12.337-3.094 10.957-8.929 12.03-11.951 21.387-3.263 10.102.844 19.613 1.818 21.868 1.694 3.924 4.601 10.657 11.244 13.887 8.432 4.101 15.079-1.239 18.999 3.339 2.191 2.559 1.006 5.269 4.964 13.228 1.292 2.599 1.938 3.898 2.51 3.852 2.706-.218 7.088-21.897.001-42.085-2.974-8.473-5.888-16.774-13.699-23.265-4.129-3.431-7.593-4.666-8.578-8.674-1.409-5.725 4.439-8.169 5.612-17.202.801-6.178 1.364-15.014-.816-20.677-2.059-5.348-3.846-9.99-8.523-14.2-1.123-1.01-10.192-7.883-19.807-8.077-4.426-.09-7.679 5.95-12.811 7.755Z"/>
    <path fill="#FFB703" d="M286.533 242.174c-36.226 0-65.592-29.386-65.592-65.635 0-36.249 29.366-65.635 65.592-65.635 36.225 0 65.592 29.386 65.592 65.635 0 36.249-29.367 65.635-65.592 65.635Z"/>
    <path fill="#fff" d="m303.13 219.36-11.946-43.117c-.847-3.06-1.503-6.459-3.444-9.055-1.5-2.008-3.859-3.321-6.356-2.496-5.954 1.969-5.858 10.565-5.752 15.58a56.11 56.11 0 0 0 5.012 22.017c.431.945.269 2.072-.69 2.633-.827.484-2.199.26-2.632-.69-3.148-6.901-5.02-14.287-5.455-21.866-.376-6.539-.404-15.163 5.261-19.62 2.768-2.179 6.302-2.826 9.548-1.32 3.207 1.488 5.166 4.569 6.397 7.758 1.37 3.547 2.186 7.351 3.199 11.01l3.268 11.793 7.3 26.35c.662 2.391-3.049 3.411-3.71 1.023Z"/>
    <path fill="#fff" d="M286.07 199.344a110.975 110.975 0 0 1-3.733-28.401c-.003-2.478 3.844-2.481 3.847 0a106.726 106.726 0 0 0 3.596 27.377c.638 2.397-3.072 3.419-3.71 1.024Z"/>
    <path fill="#fff" d="M325.622 199.232c-2.578-12.44-5.369-24.92-8.948-37.116-2.902-9.889-7.905-21.095-18.466-24.681-5.244-1.78-10.929-1.493-16.297-.46-5.323 1.024-10.715 2.549-15.621 4.882-4.644 2.208-8.94 5.251-11.998 9.443-3.018 4.138-4.897 8.941-5.91 13.942-2.351 11.606.416 23.462 3.516 34.648a755.59 755.59 0 0 0 1.257 4.461c.678 2.387-3.033 3.406-3.71 1.023-3.426-12.06-6.985-24.658-5.388-37.315.69-5.474 2.224-10.851 4.959-15.669 2.802-4.937 6.845-8.972 11.692-11.905 4.888-2.958 10.391-4.842 15.901-6.255 5.853-1.501 11.944-2.425 17.972-1.586 5.685.791 10.806 3.488 14.831 7.559 4.124 4.172 6.912 9.384 8.97 14.832 2.269 6.007 3.751 12.319 5.312 18.538a601.888 601.888 0 0 1 5.638 24.636c.211 1.017-.296 2.08-1.343 2.368-.953.262-2.155-.322-2.367-1.345Z"/>
    <path fill="#fff" d="M305.793 159.435c-3-9.109-12.661-14.749-22.015-14.124-10.369.693-19.356 8.27-22.996 17.804-2.163 5.666-2.798 11.902-1.888 17.897.155 1.026-.259 2.069-1.344 2.368-.909.25-2.209-.311-2.366-1.345-1.818-11.982 1.522-25.039 10.946-33.142 4.419-3.799 9.832-6.429 15.626-7.217a26.054 26.054 0 0 1 16.122 2.989c5.411 2.978 9.686 7.858 11.625 13.747.777 2.359-2.937 3.369-3.71 1.023Zm8.187 17.657a89.208 89.208 0 0 0 7.338 28.699c.422.949.276 2.068-.69 2.633-.82.48-2.208.264-2.632-.69a94.806 94.806 0 0 1-7.864-30.642c-.087-1.038.947-1.925 1.924-1.925 1.113 0 1.837.884 1.924 1.925Zm-46.474 11.024a89.236 89.236 0 0 0 7.339 28.699c.421.949.275 2.068-.69 2.633-.82.48-2.208.264-2.632-.69a94.78 94.78 0 0 1-7.864-30.642c-.087-1.038.946-1.925 1.924-1.925 1.113 0 1.836.884 1.923 1.925Z"/>
    <path fill="#fff" d="M304.299 180.454a90.335 90.335 0 0 0-12.134-27.576c-1.365-2.076 1.966-4.007 3.322-1.943a93.591 93.591 0 0 1 12.522 28.495c.606 2.403-3.104 3.429-3.71 1.024Z"/>
    <path fill="#3F3D58" d="M563 480.758a.913.913 0 0 1-.916.916H.916a.913.913 0 0 1-.916-.916c0-.508.408-.916.916-.916h561.168c.508 0 .916.408.916.916Z"/>
    <path fill="#FDADB0" d="M341.898 163.153c-8.282-.871-15.415 2.858-15.93 8.33-.516 5.471 5.779 10.612 14.064 11.483a20.085 20.085 0 0 0 9.757-1.261l35.134 3.235 1.055-17.149-34.748-1.368a20.389 20.389 0 0 0-9.332-3.27Z"/>
    <path fill="#3F3D58" d="M384.703 87.818c8.505-1.199 16.484 4.397 18.252 12.807 6.167 29.342 17.234 91.843-.148 92.887-22.727 1.364-44.545-4.094-44.545-4.094l5.454-31.384 17.727-1.819-10.427-48.806c-1.98-9.267 4.31-18.27 13.687-19.591Z"/>
  </g>
  <defs>
    <clipPath id="a">
      <path fill="#fff" d="M563 0H0v482h563z"/>
    </clipPath>
  </defs>
</svg>
